# xmcd
# 
# Track frame offsets:
#     150
#     15953
#     33502
#     49836
#     64787
#     80146
#     93775
#     109821
#     126501
#     139842
#     152826
# 
# Disc length: 2249
# 
# Revision: 5
# Processed by: cddbd v1.5.2PL0 Copyright (c) Steve Scherf et al.
# Submitted via: fre:ac v1.0.31
# 
DISCID=9008c70b
DTITLE=Gretchen Wilson - One Of The Boys
DYEAR=2007
DGENRE=Country
TTITLE0=The Girl I Am
TTITLE1=Come To Bed
TTITLE2=One Of The Boys
TTITLE3=You Don't Have To Go Home
TTITLE4=Heaven Help Me
TTITLE5=There's A Place In The Whiskey
TTITLE6=If You Want A Mother
TTITLE7=Pain Killer
TTITLE8=There Goes The Neighborhood
TTITLE9=Good Ole Boy
TTITLE10=To Tell You The Truth
EXTD=
EXTT0=
EXTT1=
EXTT2=
EXTT3=
EXTT4=
EXTT5=
EXTT6=
EXTT7=
EXTT8=
EXTT9=
EXTT10=
PLAYORDER=
